# xmcd
#
# Track frame offsets:
#	150
#	13505
#	30887
#	52626
#	68086
#	89423
#	108279
#	125902
#	136701
#	149783
#	163064
#	174067
#	193834
#
# Disc length: 2783 seconds
#
# Revision: 2
# Processed by: cddbd v1.5.2PL0 Copyright (c) Steve Scherf et al.
# Submitted via: audiograbber 1.83.01
#
DISCID=a70add0d
DTITLE=Jay-Z - 4:44
DYEAR=2017
DGENRE=Hip-Hop - Rap
TTITLE0=Jay-Z - Kill Jay Z
TTITLE1=Jay-Z - The Story Of O.J.
TTITLE2=Jay-Z feat. Gloria Carter - Smile
TTITLE3=Jay-Z feat. Frank Ocean - Caught Their Eyes
TTITLE4=Jay-Z - 4:44
TTITLE5=Jay-Z feat. Beyoncé - Family Feud
TTITLE6=Jay-Z feat. Damian Marley - Bam
TTITLE7=Jay-Z - Moonlight
TTITLE8=Jay-Z - Marcy Me
TTITLE9=Jay-Z - Legacy
TTITLE10=Jay-Z - Adnis
TTITLE11=Jay-Z - Blue's Freestyle - We Family
TTITLE12=Jay-Z feat. James Blake - MaNyfaCedGod
EXTD=Release-Date: 07.07.2017\n\nMARO\n
EXTT0=
EXTT1=
EXTT2=
EXTT3=
EXTT4=
EXTT5=
EXTT6=
EXTT7=
EXTT8=
EXTT9=
EXTT10=
EXTT11=
EXTT12=
PLAYORDER=
